<?xml version="1.0" encoding="iso-8859-1"?>
<!-- Uploaded to: SVG Repo, www.svgrepo.com, Generator: SVG Repo Mixer Tools -->
<svg version="1.1" id="Layer_1" xmlns="http://www.w3.org/2000/svg" xmlns:xlink="http://www.w3.org/1999/xlink" 
	 viewBox="0 0 512 512" xml:space="preserve">
<path style="fill:#85C9FF;" d="M512,224.229V372.26c0,14.211-7.084,27.355-18.965,35.171c-6.99,4.598-15.026,6.949-23.124,6.949
	c-5.642,0-11.316-1.149-16.677-3.459l-113.758-49.027v-127.31l113.758-49.027c13.051-5.622,27.93-4.315,39.8,3.49
	C504.916,196.865,512,210.008,512,224.229z"/>
<path style="fill:#00A6FF;" d="M512,294.896v77.364c0,14.211-7.084,27.355-18.965,35.171c-6.99,4.598-15.026,6.949-23.124,6.949
	c-5.642,0-11.316-1.149-16.677-3.459l-113.758-49.027v-66.999H512z"/>
<path style="fill:#85C9FF;" d="M224.016,123.731c0,17.93-5.611,34.576-15.172,48.274c-15.287,21.922-40.688,36.289-69.381,36.289
	c-46.623,0-84.564-37.94-84.564-84.564s37.94-84.553,84.564-84.553c28.693,0,54.094,14.367,69.381,36.289
	C218.405,89.155,224.016,105.801,224.016,123.731z"/>
<circle style="fill:#D7E9FF;" cx="139.463" cy="123.727" r="12.089"/>
<path style="fill:#85C9FF;" d="M322.978,143.135c0,35.934-29.226,65.16-65.149,65.16c-35.934,0-65.16-29.226-65.16-65.16
	c0-35.924,29.226-65.149,65.16-65.149C293.752,77.986,322.978,107.211,322.978,143.135z"/>
<path style="fill:#FFFFFF;" d="M269.908,143.145c0,6.666-5.413,12.079-12.079,12.079c-6.677,0-12.089-5.413-12.089-12.079
	c0-6.677,5.413-12.089,12.089-12.089C264.495,131.057,269.908,136.468,269.908,143.145z"/>
<path style="fill:#00A6FF;" d="M224.016,123.731c0,17.93-5.611,34.576-15.172,48.274c-15.287,21.922-40.688,36.289-69.381,36.289
	V39.178c28.693,0,54.094,14.367,69.381,36.289C218.405,89.155,224.016,105.801,224.016,123.731z"/>
<path style="fill:#BBDDFF;" d="M151.552,123.731c0,6.677-5.413,12.089-12.089,12.089v-24.179
	C146.139,111.642,151.552,117.054,151.552,123.731z"/>
<path style="fill:#00A6FF;" d="M322.978,143.135c0,35.934-29.226,65.16-65.149,65.16V77.986
	C293.752,77.986,322.978,107.211,322.978,143.135z"/>
<path style="fill:#BBDDFF;" d="M269.908,143.145c0,6.666-5.413,12.079-12.079,12.079v-24.168
	C264.495,131.057,269.908,136.468,269.908,143.145z"/>
<g>
	<rect y="211.864" style="fill:#DFCCBE;" width="78.213" height="118.178"/>
	<rect x="123.789" y="388.191" style="fill:#DFCCBE;" width="134.531" height="84.632"/>
</g>
<rect x="208.844" y="388.191" style="fill:#C9AD91;" width="49.465" height="84.632"/>
<rect x="46.864" y="176.944" style="fill:#FF738E;" width="323.96" height="242.594"/>
<rect x="208.844" y="176.944" style="fill:#FF3C62;" width="161.98" height="242.594"/>
<rect x="115.2" y="242.96" style="fill:#D7E9FF;" width="127.436" height="31.347"/>
<g>
	<rect x="208.802" y="242.96" style="fill:#BBDDFF;" width="33.834" height="31.347"/>
	<rect x="274.118" y="241.414" style="fill:#BBDDFF;" width="34.156" height="34.156"/>
	<rect x="274.118" y="306.709" style="fill:#BBDDFF;" width="34.156" height="34.156"/>
</g>
</svg>