<svg xmlns="http://www.w3.org/2000/svg" width="512" height="512" viewBox="0 0 512 512" version="1.1"><path d="M 205.070 25.425 C 203.817 26.759, 201.247 28.222, 199.359 28.675 L 195.927 29.500 217.029 63.483 C 228.636 82.173, 238.301 97.635, 238.508 97.842 C 238.715 98.049, 240.148 97.332, 241.692 96.248 C 243.237 95.164, 246.190 93.729, 248.255 93.060 C 250.876 92.210, 251.782 91.450, 251.255 90.546 C 247.054 83.344, 208.358 23.045, 207.924 23.026 C 207.608 23.012, 206.323 24.091, 205.070 25.425 M 282.500 56.151 C 270.950 74.356, 261.160 89.834, 260.745 90.546 C 260.218 91.450, 261.124 92.210, 263.745 93.060 C 265.810 93.729, 268.763 95.164, 270.308 96.248 C 271.852 97.332, 273.285 98.049, 273.492 97.842 C 273.699 97.635, 283.361 82.176, 294.963 63.489 L 316.057 29.512 312.779 28.677 C 310.975 28.218, 308.350 26.753, 306.945 25.421 C 305.540 24.090, 304.190 23.012, 303.945 23.026 C 303.700 23.040, 294.050 37.946, 282.500 56.151 M 317.250 163.747 C 324.262 163.919, 335.738 163.919, 342.750 163.747 C 349.762 163.575, 344.025 163.435, 330 163.435 C 315.975 163.435, 310.238 163.575, 317.250 163.747 M 396 324 L 396 329 435 329 L 474 329 474 324 L 474 319 435 319 L 396 319 396 324 M 396 353.500 L 396 358 435 358 L 474 358 474 353.500 L 474 349 435 349 L 396 349 396 353.500 M 396 383 L 396 388 435 388 L 474 388 474 383 L 474 378 435 378 L 396 378 396 383 M 396 412 L 396 417 435 417 L 474 417 474 412 L 474 407 435 407 L 396 407 396 412 M 317.308 449.748 C 324.353 449.920, 335.603 449.919, 342.308 449.747 C 349.014 449.574, 343.250 449.433, 329.500 449.434 C 315.750 449.434, 310.264 449.576, 317.308 449.748" stroke="none" fill="#e1e6e9" fill-rule="evenodd"/><path d="M 197.299 112.960 C 193.056 115.546, 191 119.787, 191 125.950 L 191 131 256 131 L 321 131 321 125.950 C 321 119.787, 318.944 115.546, 314.701 112.960 C 311.628 111.085, 309.285 111.007, 256 111.007 C 202.715 111.007, 200.372 111.085, 197.299 112.960 M 425.746 197.022 C 400.781 203.330, 388.434 232.294, 401.329 254.298 C 404.423 259.578, 412.384 267.135, 417.719 269.857 C 424.374 273.252, 433.887 274.551, 441.639 273.123 C 449.974 271.587, 454.946 269.066, 461.226 263.192 C 475.330 249.999, 477.883 231.057, 467.816 214.293 C 461.378 203.571, 450.204 197.055, 437.195 196.438 C 432.963 196.238, 427.811 196.500, 425.746 197.022 M 414.993 211.306 C 407.949 217.471, 406.647 215.166, 430.809 239.309 L 452.550 261.034 456.761 256.744 L 460.971 252.454 439.235 230.783 L 417.500 209.112 414.993 211.306 M 44.006 488.250 C 44.016 499.626, 47.290 506.067, 55.086 510.044 C 58.853 511.966, 62.366 512, 256 512 C 449.634 512, 453.147 511.966, 456.914 510.044 C 464.710 506.067, 467.984 499.626, 467.994 488.250 L 468 482 256 482 L 44 482 44.006 488.250" stroke="none" fill="#3a546b" fill-rule="evenodd"/><path d="M 189.500 0.959 C 185.416 2.660, 181.790 7.680, 181.262 12.364 C 180.577 18.449, 181.430 21.276, 185.041 24.887 C 190.788 30.634, 198.546 30.777, 205.105 25.258 C 210.955 20.336, 212.082 14.047, 208.404 6.847 C 205.554 1.267, 195.947 -1.725, 189.500 0.959 M 307.876 2.385 C 304.246 4.905, 303.553 5.957, 301.910 11.445 C 300.599 15.823, 302.480 21.337, 306.487 24.854 C 314.216 31.641, 323.995 30.599, 329.029 22.452 C 330.818 19.558, 331.151 17.832, 330.781 13.368 C 330.391 8.675, 329.787 7.321, 326.713 4.246 C 323.548 1.081, 322.385 0.588, 317.301 0.252 C 312.363 -0.074, 310.961 0.243, 307.876 2.385 M 249.289 92.811 C 242.176 95.116, 235.510 100.081, 233.048 104.906 C 231.922 107.114, 231 109.388, 231 109.960 C 231 110.652, 239.361 111, 256 111 C 272.639 111, 281 110.652, 281 109.960 C 281 107.075, 276.418 100.597, 272.226 97.554 C 268.187 94.623, 258.464 90.863, 255.434 91.061 C 254.920 91.095, 252.155 91.882, 249.289 92.811 M 21.352 131.164 C 19.620 131.626, 16.807 133.594, 15.102 135.537 L 12 139.070 12 306.458 L 12 473.847 14.608 476.946 C 16.042 478.650, 18.073 480.504, 19.121 481.065 C 21.771 482.483, 490.229 482.483, 492.879 481.065 C 493.927 480.504, 495.958 478.650, 497.392 476.946 L 500 473.847 500 306.458 L 500 139.070 496.909 135.549 C 495.090 133.478, 492.311 131.646, 490.159 131.102 C 485.535 129.931, 25.742 129.993, 21.352 131.164 M 56.491 164.865 C 51.372 167.191, 46.382 172.869, 45.023 177.913 C 44.295 180.617, 44.047 221.612, 44.231 308.676 C 44.528 448.606, 44.019 437.888, 50.661 444.197 C 57.044 450.260, 52.593 450, 149.968 450 L 239 450 239 306.500 L 239 163 149.750 163.022 C 65.584 163.043, 60.272 163.148, 56.491 164.865 M 240 306.507 L 240 450.062 298.415 449.781 L 356.830 449.500 361.088 446.500 C 363.430 444.850, 366.394 441.517, 367.673 439.093 L 370 434.685 370 306.555 L 370 178.424 367.750 173.975 C 366.435 171.375, 363.699 168.275, 361.165 166.513 L 356.829 163.500 298.415 163.227 L 240 162.953 240 306.507 M 425.746 197.022 C 400.781 203.330, 388.434 232.294, 401.329 254.298 C 404.423 259.578, 412.384 267.135, 417.719 269.857 C 424.374 273.252, 433.887 274.551, 441.639 273.123 C 449.974 271.587, 454.946 269.066, 461.226 263.192 C 475.330 249.999, 477.883 231.057, 467.816 214.293 C 461.378 203.571, 450.204 197.055, 437.195 196.438 C 432.963 196.238, 427.811 196.500, 425.746 197.022 M 414.993 211.306 C 407.949 217.471, 406.647 215.166, 430.809 239.309 L 452.550 261.034 456.761 256.744 L 460.971 252.454 439.235 230.783 L 417.500 209.112 414.993 211.306 M 396 324 L 396 329 435 329 L 474 329 474 324 L 474 319 435 319 L 396 319 396 324 M 396 353.500 L 396 358 435 358 L 474 358 474 353.500 L 474 349 435 349 L 396 349 396 353.500 M 396 383 L 396 388 435 388 L 474 388 474 383 L 474 378 435 378 L 396 378 396 383 M 396 412 L 396 417 435 417 L 474 417 474 412 L 474 407 435 407 L 396 407 396 412" stroke="none" fill="#64788b" fill-rule="evenodd"/><path d="M 56.491 164.856 C 51.368 167.195, 46.380 172.874, 45.023 177.913 C 44.295 180.617, 44.047 221.612, 44.231 308.676 C 44.531 450.033, 43.905 438.197, 51.432 444.806 C 56.977 449.674, 60.130 450.130, 86 449.800 L 109.500 449.500 109.500 306.500 L 109.500 163.500 85 163.263 C 63.070 163.050, 60.080 163.217, 56.491 164.856" stroke="none" fill="#fcd563" fill-rule="evenodd"/><path d="M 110 306.500 L 110 450 174.750 449.764 C 210.363 449.635, 224.988 449.404, 207.250 449.250 L 175 448.972 175 305.986 L 175 163 142.500 163 L 110 163 110 306.500" stroke="none" fill="#44c5a0" fill-rule="evenodd"/><path d="M 175 306 L 175 449 207 449 L 239 449 239 306 L 239 163 207 163 L 175 163 175 306" stroke="none" fill="#26a2da" fill-rule="evenodd"/><path d="M 240 306.500 L 240 450.028 272.250 449.764 L 304.500 449.500 304.500 306.500 L 304.500 163.500 272.250 163.236 L 240 162.972 240 306.500" stroke="none" fill="#e46253" fill-rule="evenodd"/><path d="M 305 306.547 L 305 449.093 331.409 448.797 L 357.819 448.500 361.659 445.436 C 363.772 443.750, 366.400 440.600, 367.500 438.436 C 369.464 434.571, 369.505 432.246, 369.769 309.500 C 369.959 221.326, 369.713 182.936, 368.936 179.190 C 367.673 173.107, 363.326 167.452, 358.298 165.351 C 355.874 164.338, 348.794 164, 330.032 164 L 305 164 305 306.547" stroke="none" fill="#ebf1f2" fill-rule="evenodd"/><path d="" stroke="none" fill="#000000" fill-rule="evenodd"/><path d="M 189.500 0.959 C 185.416 2.660, 181.790 7.680, 181.262 12.364 C 180.577 18.449, 181.430 21.276, 185.041 24.887 C 190.788 30.634, 198.546 30.777, 205.105 25.258 C 210.955 20.336, 212.082 14.047, 208.404 6.847 C 205.554 1.267, 195.947 -1.725, 189.500 0.959 M 307.876 2.385 C 304.246 4.905, 303.553 5.957, 301.910 11.445 C 300.599 15.823, 302.480 21.337, 306.487 24.854 C 314.216 31.641, 323.995 30.599, 329.029 22.452 C 330.818 19.558, 331.151 17.832, 330.781 13.368 C 330.391 8.675, 329.787 7.321, 326.713 4.246 C 323.548 1.081, 322.385 0.588, 317.301 0.252 C 312.363 -0.074, 310.961 0.243, 307.876 2.385 M 249.289 92.811 C 242.176 95.116, 235.510 100.081, 233.048 104.906 C 231.922 107.114, 231 109.388, 231 109.960 C 231 110.652, 239.361 111, 256 111 C 272.639 111, 281 110.652, 281 109.960 C 281 107.075, 276.418 100.597, 272.226 97.554 C 268.187 94.623, 258.464 90.863, 255.434 91.061 C 254.920 91.095, 252.155 91.882, 249.289 92.811 M 21.352 131.164 C 19.620 131.626, 16.807 133.594, 15.102 135.537 L 12 139.070 12 306.458 L 12 473.847 14.608 476.946 C 16.042 478.650, 18.073 480.504, 19.121 481.065 C 21.771 482.483, 490.229 482.483, 492.879 481.065 C 493.927 480.504, 495.958 478.650, 497.392 476.946 L 500 473.847 500 306.458 L 500 139.070 496.909 135.549 C 495.090 133.478, 492.311 131.646, 490.159 131.102 C 485.535 129.931, 25.742 129.993, 21.352 131.164 M 56.491 164.865 C 51.372 167.191, 46.382 172.869, 45.023 177.913 C 44.295 180.617, 44.047 221.612, 44.231 308.676 C 44.528 448.606, 44.019 437.888, 50.661 444.197 C 57.044 450.260, 52.593 450, 149.968 450 L 239 450 239 306.500 L 239 163 149.750 163.022 C 65.584 163.043, 60.272 163.148, 56.491 164.865 M 240 306.507 L 240 450.062 298.415 449.781 L 356.830 449.500 361.088 446.500 C 363.430 444.850, 366.394 441.517, 367.673 439.093 L 370 434.685 370 306.555 L 370 178.424 367.750 173.975 C 366.435 171.375, 363.699 168.275, 361.165 166.513 L 356.829 163.500 298.415 163.227 L 240 162.953 240 306.507 M 425.746 197.022 C 400.781 203.330, 388.434 232.294, 401.329 254.298 C 404.423 259.578, 412.384 267.135, 417.719 269.857 C 424.374 273.252, 433.887 274.551, 441.639 273.123 C 449.974 271.587, 454.946 269.066, 461.226 263.192 C 475.330 249.999, 477.883 231.057, 467.816 214.293 C 461.378 203.571, 450.204 197.055, 437.195 196.438 C 432.963 196.238, 427.811 196.500, 425.746 197.022 M 414.993 211.306 C 407.949 217.471, 406.647 215.166, 430.809 239.309 L 452.550 261.034 456.761 256.744 L 460.971 252.454 439.235 230.783 L 417.500 209.112 414.993 211.306 M 396 324 L 396 329 435 329 L 474 329 474 324 L 474 319 435 319 L 396 319 396 324 M 396 353.500 L 396 358 435 358 L 474 358 474 353.500 L 474 349 435 349 L 396 349 396 353.500 M 396 383 L 396 388 435 388 L 474 388 474 383 L 474 378 435 378 L 396 378 396 383 M 396 412 L 396 417 435 417 L 474 417 474 412 L 474 407 435 407 L 396 407 396 412" stroke="none" fill="#64788b" fill-rule="evenodd"/></svg>