<svg xmlns="http://www.w3.org/2000/svg" width="100" height="100" viewBox="0 0 100 100" version="1.1"><path d="M 64.455 59.455 C 60.516 63.393, 61.650 69.156, 66.745 71.093 C 72.473 73.271, 78.271 67.473, 76.093 61.745 C 74.156 56.650, 68.393 55.516, 64.455 59.455 M 65.655 60.829 C 62.441 64.380, 64.877 70, 69.629 70 C 71.668 70, 74 68.254, 74 66.729 C 74 66.249, 73.293 66.564, 72.429 67.429 C 71.564 68.293, 70.246 69, 69.500 69 C 68.754 69, 67.436 68.293, 66.571 67.429 C 65.707 66.564, 65 65.246, 65 64.500 C 65 63.754, 65.707 62.436, 66.571 61.571 C 69.111 59.032, 71.656 59.710, 73.805 63.500 C 74.683 65.047, 74.946 65.139, 74.970 63.905 C 75.010 61.768, 71.826 59, 69.326 59 C 68.217 59, 66.565 59.823, 65.655 60.829" stroke="none" fill="#f69272" fill-rule="evenodd"/><path d="M 19.494 36.006 C 16.938 38.831, 18.026 39.093, 20.714 36.301 C 21.932 35.035, 22.564 34, 22.119 34 C 21.674 34, 20.493 34.903, 19.494 36.006 M 80.286 36.301 C 81.504 37.566, 82.685 38.469, 82.911 38.307 C 83.494 37.888, 79.856 34, 78.881 34 C 78.436 34, 79.068 35.035, 80.286 36.301 M 22.539 54.964 C 22.366 55.259, 22.287 56.625, 22.362 58 C 22.477 60.081, 23.003 60.500, 25.500 60.500 C 28.147 60.500, 28.500 60.157, 28.500 57.587 C 28.500 55.088, 28.100 54.657, 25.677 54.551 C 24.124 54.483, 22.712 54.669, 22.539 54.964 M 30.539 54.964 C 30.366 55.259, 30.287 56.625, 30.362 58 C 30.477 60.081, 31.003 60.500, 33.500 60.500 C 36.147 60.500, 36.500 60.157, 36.500 57.587 C 36.500 55.088, 36.100 54.657, 33.677 54.551 C 32.124 54.483, 30.712 54.669, 30.539 54.964 M 66 57.059 C 66 57.641, 66.450 57.840, 67 57.500 C 67.550 57.160, 68 56.684, 68 56.441 C 68 56.198, 67.550 56, 67 56 C 66.450 56, 66 56.477, 66 57.059 M 71.500 57 C 71.840 57.550, 72.316 58, 72.559 58 C 72.802 58, 73 57.550, 73 57 C 73 56.450, 72.523 56, 71.941 56 C 71.359 56, 71.160 56.450, 71.500 57 M 40 58 C 40 58.550, 40.675 59, 41.500 59 C 42.325 59, 43 58.550, 43 58 C 43 57.450, 42.325 57, 41.500 57 C 40.675 57, 40 57.450, 40 58 M 63.020 58.476 C 62.231 59.426, 62.155 60, 62.819 60 C 64.027 60, 65.436 58.103, 64.743 57.409 C 64.491 57.158, 63.716 57.638, 63.020 58.476 M 74 57.378 C 74 57.585, 74.787 58.373, 75.750 59.128 C 77.336 60.371, 77.371 60.336, 76.128 58.750 C 74.821 57.084, 74 56.555, 74 57.378 M 67 60 C 67 60.733, 67.300 61.033, 67.667 60.667 C 68.033 60.300, 68.033 59.700, 67.667 59.333 C 67.300 58.967, 67 59.267, 67 60 M 71 60 C 71 60.733, 71.300 61.033, 71.667 60.667 C 72.033 60.300, 72.033 59.700, 71.667 59.333 C 71.300 58.967, 71 59.267, 71 60 M 61 62.059 C 61 62.641, 61.450 62.840, 62 62.500 C 62.550 62.160, 63 61.684, 63 61.441 C 63 61.198, 62.550 61, 62 61 C 61.450 61, 61 61.477, 61 62.059 M 76 62 C 76 62.550, 76.450 63, 77 63 C 77.550 63, 78 62.550, 78 62 C 78 61.450, 77.550 61, 77 61 C 76.450 61, 76 61.450, 76 62 M 64.333 62.667 C 64.700 63.033, 65.300 63.033, 65.667 62.667 C 66.033 62.300, 65.733 62, 65 62 C 64.267 62, 63.967 62.300, 64.333 62.667 M 73.333 62.667 C 73.700 63.033, 74.300 63.033, 74.667 62.667 C 75.033 62.300, 74.733 62, 74 62 C 73.267 62, 72.967 62.300, 73.333 62.667 M 61 67 C 61 67.550, 61.477 68, 62.059 68 C 62.641 68, 62.840 67.550, 62.500 67 C 62.160 66.450, 61.684 66, 61.441 66 C 61.198 66, 61 66.450, 61 67 M 64.333 66.667 C 64.700 67.033, 65.300 67.033, 65.667 66.667 C 66.033 66.300, 65.733 66, 65 66 C 64.267 66, 63.967 66.300, 64.333 66.667 M 72.149 67.667 C 71.406 68.472, 71.005 69.338, 71.257 69.590 C 71.509 69.842, 72.293 69.352, 73 68.500 C 74.669 66.489, 73.916 65.751, 72.149 67.667 M 76 67 C 76 67.550, 76.450 68, 77 68 C 77.550 68, 78 67.550, 78 67 C 78 66.450, 77.550 66, 77 66 C 76.450 66, 76 66.450, 76 67 M 67 69 C 67 69.733, 67.300 70.033, 67.667 69.667 C 68.033 69.300, 68.033 68.700, 67.667 68.333 C 67.300 67.967, 67 68.267, 67 69 M 62 69.378 C 62 69.585, 62.788 70.373, 63.750 71.128 C 65.336 72.371, 65.371 72.336, 64.128 70.750 C 62.821 69.084, 62 68.555, 62 69.378 M 74.872 70.750 C 73.629 72.336, 73.664 72.371, 75.250 71.128 C 76.916 69.821, 77.445 69, 76.622 69 C 76.415 69, 75.627 69.787, 74.872 70.750 M 66 72 C 66 72.550, 66.450 73, 67 73 C 67.550 73, 68 72.550, 68 72 C 68 71.450, 67.550 71, 67 71 C 66.450 71, 66 71.450, 66 72 M 71 72 C 71 72.550, 71.450 73, 72 73 C 72.550 73, 73 72.550, 73 72 C 73 71.450, 72.550 71, 72 71 C 71.450 71, 71 71.450, 71 72 M 18 73.881 C 18 74.856, 21.888 78.494, 22.307 77.911 C 22.469 77.685, 21.566 76.504, 20.301 75.286 C 19.035 74.068, 18 73.436, 18 73.881 M 81.100 75.295 C 79.835 77.402, 79.857 77.423, 81.579 75.774 C 82.570 74.824, 83.166 73.832, 82.903 73.569 C 82.640 73.306, 81.829 74.083, 81.100 75.295" stroke="none" fill="#565fa1" fill-rule="evenodd"/><path d="M 48.750 40.766 L 22 41.033 22 45.516 L 22 50 41.937 50 L 61.873 50 62.277 46.750 L 62.680 43.500 62.840 46.750 L 63 50 70 50 L 77 50 77 45.559 C 77 43.116, 76.662 40.979, 76.250 40.809 C 75.838 40.639, 63.462 40.620, 48.750 40.766" stroke="none" fill="#fefdef" fill-rule="evenodd"/><path d="M 35 11.995 C 35 12.542, 43.438 17.243, 53.750 22.442 L 72.500 31.894 46.705 31.947 L 20.909 32 18.455 34.455 C 16.020 36.889, 16 37.064, 16 56 C 16 74.936, 16.020 75.111, 18.455 77.545 L 20.909 80 50.500 80 L 80.091 80 82.545 77.545 C 84.976 75.115, 85 74.906, 85 56.480 C 85 45.450, 84.574 37.073, 83.955 35.916 C 83.007 34.145, 38.469 11, 36.008 11 C 35.454 11, 35 11.448, 35 11.995 M 19.655 35.829 C 18.240 37.392, 18 40.347, 18 56.174 C 18 72.842, 18.183 74.855, 19.829 76.345 C 21.440 77.803, 25.038 78, 50.106 78 C 74.236 78, 78.892 77.764, 80.777 76.443 C 82.940 74.929, 83 74.380, 83 56.098 C 83 39.166, 82.819 37.146, 81.171 35.655 C 79.558 34.195, 75.923 34, 50.326 34 C 23.486 34, 21.186 34.137, 19.655 35.829 M 21 45.500 L 21 51 49.500 51 L 78 51 77.825 46.250 L 77.651 41.500 77.268 45.750 L 76.885 50 70.009 50 C 63.275 50, 63.124 49.943, 62.716 47.250 L 62.300 44.500 62.150 47.250 L 62 50 42 50 L 22 50 22 45.517 L 22 41.033 48.250 40.749 L 74.500 40.465 47.750 40.233 L 21 40 21 45.500 M 23.655 54.750 C 23.400 55.163, 24.230 55.500, 25.500 55.500 C 26.770 55.500, 27.600 55.163, 27.345 54.750 C 27.091 54.337, 26.260 54, 25.500 54 C 24.740 54, 23.909 54.337, 23.655 54.750 M 31.655 54.750 C 31.400 55.163, 32.230 55.500, 33.500 55.500 C 34.770 55.500, 35.600 55.163, 35.345 54.750 C 35.091 54.337, 34.260 54, 33.500 54 C 32.740 54, 31.909 54.337, 31.655 54.750 M 68.813 56.683 C 69.534 56.972, 70.397 56.936, 70.729 56.604 C 71.061 56.272, 70.471 56.036, 69.417 56.079 C 68.252 56.127, 68.015 56.364, 68.813 56.683 M 74.500 59 C 75.495 60.100, 76.535 61, 76.810 61 C 77.085 61, 76.495 60.100, 75.500 59 C 74.505 57.900, 73.465 57, 73.190 57 C 72.915 57, 73.505 57.900, 74.500 59 M 68.813 59.683 C 69.534 59.972, 70.397 59.936, 70.729 59.604 C 71.061 59.272, 70.471 59.036, 69.417 59.079 C 68.252 59.127, 68.015 59.364, 68.813 59.683 M 65.405 61.155 C 64.962 61.870, 65.130 62.038, 65.845 61.595 C 66.480 61.203, 67 60.684, 67 60.441 C 67 59.607, 66.117 60.002, 65.405 61.155 M 72.500 61 C 72.840 61.550, 73.343 62, 73.618 62 C 73.893 62, 73.840 61.550, 73.500 61 C 73.160 60.450, 72.657 60, 72.382 60 C 72.107 60, 72.160 60.450, 72.500 61 M 61.079 64.583 C 61.127 65.748, 61.364 65.985, 61.683 65.188 C 61.972 64.466, 61.936 63.603, 61.604 63.271 C 61.272 62.939, 61.036 63.529, 61.079 64.583 M 64.079 64.583 C 64.127 65.748, 64.364 65.985, 64.683 65.188 C 64.972 64.466, 64.936 63.603, 64.604 63.271 C 64.272 62.939, 64.036 63.529, 64.079 64.583 M 77.079 64.583 C 77.127 65.748, 77.364 65.985, 77.683 65.188 C 77.972 64.466, 77.936 63.603, 77.604 63.271 C 77.272 62.939, 77.036 63.529, 77.079 64.583 M 22 70 L 22 73 28.250 72.811 L 34.500 72.622 28.750 72.261 C 23.839 71.953, 23 71.616, 23 69.950 C 23 68.236, 23.717 68, 28.917 68 C 32.714 68, 35.014 68.448, 35.338 69.250 C 35.639 69.997, 35.874 69.795, 35.921 68.750 C 35.989 67.242, 35.030 67, 29 67 L 22 67 22 70 M 65.500 68 C 65.840 68.550, 66.343 69, 66.618 69 C 66.893 69, 66.840 68.550, 66.500 68 C 66.160 67.450, 65.657 67, 65.382 67 C 65.107 67, 65.160 67.450, 65.500 68 M 63.500 70 C 64.495 71.100, 65.535 72, 65.810 72 C 66.085 72, 65.495 71.100, 64.500 70 C 63.505 68.900, 62.465 68, 62.190 68 C 61.915 68, 62.505 68.900, 63.500 70 M 74.405 70.250 L 72.500 72.500 74.750 70.595 C 75.987 69.547, 77 68.535, 77 68.345 C 77 67.545, 76.195 68.136, 74.405 70.250 M 68.813 69.683 C 69.534 69.972, 70.397 69.936, 70.729 69.604 C 71.061 69.272, 70.471 69.036, 69.417 69.079 C 68.252 69.127, 68.015 69.364, 68.813 69.683 M 68.813 72.683 C 69.534 72.972, 70.397 72.936, 70.729 72.604 C 71.061 72.272, 70.471 72.036, 69.417 72.079 C 68.252 72.127, 68.015 72.364, 68.813 72.683" stroke="none" fill="#000000" fill-rule="evenodd"/><path d="M 20.455 36.455 C 18.040 38.869, 18 39.187, 18 56 C 18 72.813, 18.040 73.131, 20.455 75.545 L 22.909 78 50.500 78 L 78.091 78 80.545 75.545 C 82.960 73.131, 83 72.813, 83 56 C 83 39.187, 82.960 38.869, 80.545 36.455 L 78.091 34 50.500 34 L 22.909 34 20.455 36.455 M 21 45.500 L 21 51 49.500 51 L 78 51 78 46.107 C 78 42.568, 77.562 41.046, 76.418 40.607 C 75.548 40.273, 62.723 40, 47.918 40 L 21 40 21 45.500 M 22.410 55.375 C 21.211 58.498, 22.424 60.500, 25.514 60.500 C 28.165 60.500, 28.500 60.164, 28.500 57.500 C 28.500 54.969, 28.069 54.450, 25.744 54.183 C 23.986 53.981, 22.779 54.412, 22.410 55.375 M 30.410 55.375 C 29.211 58.498, 30.424 60.500, 33.514 60.500 C 36.165 60.500, 36.500 60.164, 36.500 57.500 C 36.500 54.969, 36.069 54.450, 33.744 54.183 C 31.986 53.981, 30.779 54.412, 30.410 55.375 M 63.455 58.455 C 60.115 61.794, 60.115 67.206, 63.455 70.545 C 68.847 75.938, 78 72.134, 78 64.500 C 78 59.623, 74.377 56, 69.500 56 C 67.021 56, 65.149 56.760, 63.455 58.455 M 40 58 C 40 58.550, 40.675 59, 41.500 59 C 42.325 59, 43 58.550, 43 58 C 43 57.450, 42.325 57, 41.500 57 C 40.675 57, 40 57.450, 40 58 M 22 70 L 22 73 28.750 72.807 L 35.500 72.615 29.250 72.260 C 23.839 71.952, 23 71.643, 23 69.952 C 23 68.236, 23.715 68, 28.927 68 C 33.730 68, 34.940 68.332, 35.311 69.750 C 35.655 71.067, 35.797 70.943, 35.884 69.250 C 35.994 67.120, 35.627 67, 29 67 L 22 67 22 70" stroke="none" fill="#79a3d2" fill-rule="evenodd"/></svg>